<?xml version="1.0" encoding="utf-8"?>
<!-- Generator: Adobe Illustrator 16.0.0, SVG Export Plug-In . SVG Version: 6.00 Build 0)  -->
<!DOCTYPE svg PUBLIC "-//W3C//DTD SVG 1.1//EN" "http://www.w3.org/Graphics/SVG/1.1/DTD/svg11.dtd">
<svg version="1.1" xmlns="http://www.w3.org/2000/svg" xmlns:xlink="http://www.w3.org/1999/xlink" x="0px" y="0px" width="32px"
	 height="32px" viewBox="0 0 32 32" enable-background="new 0 0 32 32" xml:space="preserve">
<g id="bg" display="none">
	<rect x="-970.894" y="-170.786" display="inline" fill="#5D5E5E" width="1269.604" height="628.432"/>
	<rect x="-970.894" y="-53.001" display="inline" fill="#FFFFFF" width="1269.604" height="510.648"/>
</g>
<g id="Layer_5" display="none">
</g>
<g id="Layer_1">
	<g>
		<path fill="#ACB5BC" d="M15.797,26.558c-0.152,0.152-0.305,0.203-0.508,0.152l-8.33-2.286l-6.915,0.93L0,32h31.949v-9.1
			l-7.924-5.028L15.797,26.558z"/>
		<path fill="#EFC41D" d="M7.06,22.557l8.229,2.286l8.331-8.788c0.152-0.152,0.457-0.203,0.66-0.102L32,20.881V0L14.999,18.024
			c-0.051,0.152-0.152,0.254-0.305,0.305s-0.305,0-0.458-0.051L7.06,15.344L0,23.523l6.654-0.916
			C6.755,22.557,6.908,22.506,7.06,22.557z"/>
		<path fill="#3CBBEC" d="M15.797,25.857c-0.152,0.152-0.305,0.203-0.508,0.152l-8.33-2.286l-6.915,0.93L0,31.299h31.949v-9.1
			l-7.924-5.028L15.797,25.857z"/>
	</g>
</g>
</svg>
