<?xml version="1.0" encoding="utf-8"?>
<!-- Generator: Adobe Illustrator 16.0.0, SVG Export Plug-In . SVG Version: 6.00 Build 0)  -->
<!DOCTYPE svg PUBLIC "-//W3C//DTD SVG 1.1//EN" "http://www.w3.org/Graphics/SVG/1.1/DTD/svg11.dtd">
<svg version="1.1" xmlns="http://www.w3.org/2000/svg" xmlns:xlink="http://www.w3.org/1999/xlink" x="0px" y="0px" width="32px"
	 height="32px" viewBox="0 0 32 32" enable-background="new 0 0 32 32" xml:space="preserve">
<g id="Layer_1">
	<g>
		<g>
			<path fill="#ACB5BC" d="M17.903,31.977h-2.755c-0.37,0-0.67-0.286-0.67-0.638V16.654c0-0.352,0.3-0.638,0.67-0.638h2.755
				c0.372,0,0.672,0.286,0.672,0.638v14.685C18.575,31.691,18.274,31.977,17.903,31.977z"/>
			<path fill="#ACB5BC" d="M17.903,31.977h-2.755c-0.37,0-0.67-0.286-0.67-0.638V20.485c0-0.353,0.3-0.638,0.67-0.638h2.755
				c0.372,0,0.672,0.285,0.672,0.638v10.854C18.575,31.691,18.274,31.977,17.903,31.977z"/>
			<path fill="#ACB5BC" d="M24.617,31.977h-2.831c-0.371,0-0.671-0.286-0.671-0.638V5.163c0-0.353,0.3-0.639,0.671-0.639h2.831
				c0.37,0,0.67,0.286,0.67,0.639v26.176C25.287,31.691,24.986,31.977,24.617,31.977z"/>
			<path fill="#ACB5BC" d="M24.617,31.977h-2.831c-0.371,0-0.671-0.286-0.671-0.638V12.824c0-0.353,0.3-0.639,0.671-0.639h2.831
				c0.37,0,0.67,0.286,0.67,0.639v18.515C25.287,31.691,24.986,31.977,24.617,31.977z"/>
			<path fill="#ACB5BC" d="M4.177,31.977H1.122c-0.371,0-0.371-0.286-0.371-0.638V20.485c0-0.353,0-0.638,0.371-0.638h3.056
				c0.371,0,0.671,0.285,0.671,0.638v10.854C4.849,31.691,4.548,31.977,4.177,31.977z"/>
			<path fill="#ACB5BC" d="M31.328,31.977h-2.755c-0.37,0-0.67-0.286-0.67-0.638V1.332c0-0.353,0.3-0.638,0.67-0.638h2.755
				C31.699,0.694,32,0.979,32,1.332v30.007C32,31.691,31.699,31.977,31.328,31.977z"/>
			<path fill="#ACB5BC" d="M31.328,31.977h-2.755c-0.37,0-0.67-0.286-0.67-0.638V8.993c0-0.352,0.3-0.639,0.67-0.639h2.755
				C31.699,8.354,32,8.642,32,8.993v22.346C32,31.691,31.699,31.977,31.328,31.977z"/>
			<path fill="#ACB5BC" d="M11.19,31.977H8.135c-0.371,0-0.672-0.286-0.672-0.638V12.824c0-0.353,0.301-0.639,0.672-0.639h3.055
				c0.37,0,0.671,0.286,0.671,0.639v18.515C11.861,31.691,11.56,31.977,11.19,31.977z"/>
			<path fill="#ACB5BC" d="M11.19,31.977H8.135c-0.371,0-0.672-0.286-0.672-0.638V16.654c0-0.352,0.301-0.638,0.672-0.638h3.055
				c0.37,0,0.671,0.286,0.671,0.638v14.685C11.861,31.691,11.56,31.977,11.19,31.977z"/>
			<path fill="#ACB5BC" d="M4.177,31.977H1.122c-0.371,0-0.371-0.286-0.371-0.638v-7.022c0-0.353,0-0.639,0.371-0.639h3.056
				c0.371,0,0.671,0.286,0.671,0.639v7.022C4.849,31.691,4.548,31.977,4.177,31.977z"/>
		</g>
		<g>
			<path fill="#EFC41C" d="M17.151,31.307h-2.754c-0.371,0-0.671-0.286-0.671-0.639V15.984c0-0.353,0.301-0.639,0.671-0.639h2.754
				c0.372,0,0.672,0.286,0.672,0.639v14.684C17.823,31.021,17.523,31.307,17.151,31.307z"/>
			<path fill="#EFC41C" d="M17.151,31.307h-2.754c-0.371,0-0.671-0.286-0.671-0.639V19.814c0-0.353,0.301-0.638,0.671-0.638h2.754
				c0.372,0,0.672,0.285,0.672,0.638v10.854C17.823,31.021,17.523,31.307,17.151,31.307z"/>
			<path fill="#A6D16F" d="M23.865,31.307h-2.831c-0.371,0-0.671-0.286-0.671-0.639V4.493c0-0.353,0.3-0.638,0.671-0.638h2.831
				c0.37,0,0.67,0.285,0.67,0.638v26.175C24.536,31.021,24.235,31.307,23.865,31.307z"/>
			<path fill="#A6D16F" d="M23.865,31.307h-2.831c-0.371,0-0.671-0.286-0.671-0.639V12.154c0-0.353,0.3-0.638,0.671-0.638h2.831
				c0.37,0,0.67,0.285,0.67,0.638v18.514C24.536,31.021,24.235,31.307,23.865,31.307z"/>
			<path fill="#36BBED" d="M3.426,31.307H0.671C0.3,31.307,0,31.021,0,30.668V19.814c0-0.353,0.3-0.638,0.671-0.638h2.755
				c0.37,0,0.671,0.285,0.671,0.638v10.854C4.097,31.021,3.796,31.307,3.426,31.307z"/>
			<path fill="#7DCCBB" d="M30.577,31.307h-2.754c-0.371,0-0.672-0.286-0.672-0.639V0.662c0-0.353,0.301-0.638,0.672-0.638h2.754
				c0.371,0,0.671,0.286,0.671,0.638v30.006C31.248,31.021,30.948,31.307,30.577,31.307z"/>
			<path fill="#7DCCBB" d="M30.577,31.307h-2.754c-0.371,0-0.672-0.286-0.672-0.639V8.323c0-0.352,0.301-0.638,0.672-0.638h2.754
				c0.371,0,0.671,0.286,0.671,0.638v22.345C31.248,31.021,30.948,31.307,30.577,31.307z"/>
			<path fill="#F16465" d="M10.438,31.307H7.384c-0.372,0-0.672-0.286-0.672-0.639V12.154c0-0.353,0.3-0.638,0.672-0.638h3.054
				c0.371,0,0.672,0.285,0.672,0.638v18.514C11.11,31.021,10.809,31.307,10.438,31.307z"/>
			<path fill="#F16465" d="M10.438,31.307H7.384c-0.372,0-0.672-0.286-0.672-0.639V15.984c0-0.353,0.3-0.639,0.672-0.639h3.054
				c0.371,0,0.672,0.286,0.672,0.639v14.684C11.11,31.021,10.809,31.307,10.438,31.307z"/>
			<path fill="#36BBED" d="M3.426,31.307H0.671C0.3,31.307,0,31.021,0,30.668v-7.022c0-0.352,0.3-0.638,0.671-0.638h2.755
				c0.37,0,0.671,0.286,0.671,0.638v7.022C4.097,31.021,3.796,31.307,3.426,31.307z"/>
		</g>
	</g>
</g>
<g id="Layer_2">
</g>
</svg>
