<?xml version="1.0" encoding="utf-8"?>
<!-- Generator: Adobe Illustrator 16.0.0, SVG Export Plug-In . SVG Version: 6.00 Build 0)  -->
<!DOCTYPE svg PUBLIC "-//W3C//DTD SVG 1.1//EN" "http://www.w3.org/Graphics/SVG/1.1/DTD/svg11.dtd">
<svg version="1.1" id="Layer_1" xmlns="http://www.w3.org/2000/svg" xmlns:xlink="http://www.w3.org/1999/xlink" x="0px" y="0px"
	 width="40.316px" height="30.907px" viewBox="0 0 40.316 30.907" enable-background="new 0 0 40.316 30.907"
	 >
          <g id="Layer_1_1_">
            <g opacity="0.7">
              <path fill="#000" stroke="#000" d="M19.803,20.23
                c0.188,0.188,0.521,0.188,0.709,0l6.354-6.356c0.096-0.095,0.147-0.22,0.147-0.353s-0.054-0.258-0.147-0.353
                c-0.187-0.187-0.558-0.187-0.744,0l-5.463,5.417V6.173c0-0.275-0.226-0.498-0.5-0.498c-0.272,0-0.498,0.223-0.498,0.498v12.592
                l-5.468-5.52c-0.092-0.092-0.215-0.144-0.342-0.144s-0.25,0.051-0.345,0.146c-0.11,0.112-0.135,0.253-0.135,0.352
                c0,0.13,0.053,0.255,0.149,0.354L19.803,20.23z"/>
              <path fill="#000" stroke="#000" d="M30.203,20.467c-0.274,0-0.5,0.224-0.5,0.498
                v2.008c0,0.828-0.695,1.26-1.386,1.26H11.998c-0.688,0-1.386-0.434-1.386-1.26v-2.008c0-0.274-0.225-0.498-0.497-0.498
                c-0.275,0-0.5,0.224-0.5,0.498v2.008c0,1.268,1.047,2.258,2.383,2.258h16.319c1.336,0,2.384-0.992,2.384-2.258v-2.008
                C30.701,20.691,30.477,20.467,30.203,20.467z"/>
            </g>
          </g>
</svg>
