<?xml version="1.0" encoding="utf-8"?>
<!-- Generator: Adobe Illustrator 16.0.0, SVG Export Plug-In . SVG Version: 6.00 Build 0)  -->
<!DOCTYPE svg PUBLIC "-//W3C//DTD SVG 1.1//EN" "http://www.w3.org/Graphics/SVG/1.1/DTD/svg11.dtd">
<svg version="1.1" xmlns="http://www.w3.org/2000/svg" xmlns:xlink="http://www.w3.org/1999/xlink" x="0px" y="0px" width="32px"
	 height="32px" viewBox="0 0 32 32" enable-background="new 0 0 32 32" xml:space="preserve">
<g id="Layer_1">
	<g>
		<g>
			<path fill="#ACB5BC" d="M0.358,17.904v-2.755c0-0.372,0.286-0.671,0.639-0.671h14.684c0.353,0,0.638,0.3,0.638,0.671v2.755
				c0,0.371-0.286,0.671-0.638,0.671H0.997C0.645,18.575,0.358,18.275,0.358,17.904z"/>
			<path fill="#ACB5BC" d="M0.358,17.904v-2.755c0-0.372,0.286-0.671,0.639-0.671h10.854c0.352,0,0.638,0.3,0.638,0.671v2.755
				c0,0.371-0.286,0.671-0.638,0.671H0.997C0.645,18.575,0.358,18.275,0.358,17.904z"/>
			<path fill="#ACB5BC" d="M0.358,24.617v-2.83c0-0.372,0.286-0.672,0.639-0.672h26.176c0.353,0,0.638,0.301,0.638,0.672v2.83
				c0,0.37-0.286,0.67-0.638,0.67H0.997C0.645,25.288,0.358,24.987,0.358,24.617z"/>
			<path fill="#ACB5BC" d="M0.358,24.617v-2.83c0-0.372,0.286-0.672,0.639-0.672h18.515c0.353,0,0.639,0.301,0.639,0.672v2.83
				c0,0.37-0.286,0.67-0.639,0.67H0.997C0.645,25.288,0.358,24.987,0.358,24.617z"/>
			<path fill="#ACB5BC" d="M0.358,4.178V1.122c0-0.371,0.286-0.37,0.639-0.37h10.854c0.352,0,0.638-0.001,0.638,0.37v3.056
				c0,0.371-0.286,0.671-0.638,0.671H0.997C0.645,4.849,0.358,4.548,0.358,4.178z"/>
			<path fill="#ACB5BC" d="M0.358,31.329v-2.754c0-0.371,0.286-0.671,0.639-0.671h30.007c0.353,0,0.638,0.301,0.638,0.671v2.754
				c0,0.371-0.286,0.671-0.638,0.671H0.997C0.645,32,0.358,31.7,0.358,31.329z"/>
			<path fill="#ACB5BC" d="M0.358,31.329v-2.754c0-0.371,0.286-0.671,0.639-0.671h22.345c0.353,0,0.639,0.301,0.639,0.671v2.754
				c0,0.371-0.286,0.671-0.639,0.671H0.997C0.645,32,0.358,31.7,0.358,31.329z"/>
			<path fill="#ACB5BC" d="M0.358,11.191V8.135c0-0.371,0.286-0.671,0.639-0.671h18.515c0.353,0,0.639,0.3,0.639,0.671v3.056
				c0,0.37-0.286,0.671-0.639,0.671H0.997C0.645,11.862,0.358,11.561,0.358,11.191z"/>
			<path fill="#ACB5BC" d="M0.358,11.191V8.135c0-0.371,0.286-0.671,0.639-0.671h14.684c0.353,0,0.638,0.3,0.638,0.671v3.056
				c0,0.37-0.286,0.671-0.638,0.671H0.997C0.645,11.862,0.358,11.561,0.358,11.191z"/>
			<path fill="#ACB5BC" d="M0.358,4.178V1.122c0-0.371,0.286-0.37,0.639-0.37H8.02c0.353,0,0.639-0.001,0.639,0.37v3.056
				c0,0.371-0.286,0.671-0.639,0.671H0.997C0.645,4.849,0.358,4.548,0.358,4.178z"/>
		</g>
		<g>
			<path fill="#EFC41C" d="M0.358,17.152v-2.754c0-0.372,0.286-0.672,0.639-0.672h14.684c0.353,0,0.638,0.3,0.638,0.672v2.754
				c0,0.372-0.286,0.671-0.638,0.671H0.997C0.645,17.823,0.358,17.524,0.358,17.152z"/>
			<path fill="#EFC41C" d="M0.358,17.152v-2.754c0-0.372,0.286-0.672,0.639-0.672h10.854c0.352,0,0.638,0.3,0.638,0.672v2.754
				c0,0.372-0.286,0.671-0.638,0.671H0.997C0.645,17.823,0.358,17.524,0.358,17.152z"/>
			<path fill="#A6D16F" d="M0.358,23.866v-2.831c0-0.371,0.286-0.671,0.639-0.671h26.176c0.353,0,0.638,0.301,0.638,0.671v2.831
				c0,0.37-0.286,0.67-0.638,0.67H0.997C0.645,24.536,0.358,24.236,0.358,23.866z"/>
			<path fill="#A6D16F" d="M0.358,23.866v-2.831c0-0.371,0.286-0.671,0.639-0.671h18.515c0.353,0,0.639,0.301,0.639,0.671v2.831
				c0,0.37-0.286,0.67-0.639,0.67H0.997C0.645,24.536,0.358,24.236,0.358,23.866z"/>
			<path fill="#36BBED" d="M0.358,3.427V0.671C0.358,0.3,0.645,0,0.997,0h10.854c0.352,0,0.638,0.3,0.638,0.671v2.756
				c0,0.37-0.286,0.671-0.638,0.671H0.997C0.645,4.098,0.358,3.797,0.358,3.427z"/>
			<path fill="#7DCCBB" d="M0.358,30.578v-2.755c0-0.37,0.286-0.671,0.639-0.671h30.007c0.353,0,0.638,0.301,0.638,0.671v2.755
				c0,0.371-0.286,0.671-0.638,0.671H0.997C0.645,31.249,0.358,30.948,0.358,30.578z"/>
			<path fill="#7DCCBB" d="M0.358,30.578v-2.755c0-0.37,0.286-0.671,0.639-0.671h22.345c0.353,0,0.639,0.301,0.639,0.671v2.755
				c0,0.371-0.286,0.671-0.639,0.671H0.997C0.645,31.249,0.358,30.948,0.358,30.578z"/>
			<path fill="#F16465" d="M0.358,10.439V7.384c0-0.371,0.286-0.672,0.639-0.672h18.515c0.353,0,0.639,0.301,0.639,0.672v3.055
				c0,0.371-0.286,0.672-0.639,0.672H0.997C0.645,11.111,0.358,10.81,0.358,10.439z"/>
			<path fill="#F16465" d="M0.358,10.439V7.384c0-0.371,0.286-0.672,0.639-0.672h14.684c0.353,0,0.638,0.301,0.638,0.672v3.055
				c0,0.371-0.286,0.672-0.638,0.672H0.997C0.645,11.111,0.358,10.81,0.358,10.439z"/>
			<path fill="#36BBED" d="M0.358,3.427V0.671C0.358,0.3,0.645,0,0.997,0H8.02c0.353,0,0.639,0.3,0.639,0.671v2.756
				c0,0.37-0.286,0.671-0.639,0.671H0.997C0.645,4.098,0.358,3.797,0.358,3.427z"/>
		</g>
	</g>
</g>
<g id="Layer_2">
</g>
</svg>
