<?xml version="1.0" encoding="utf-8"?>
<!-- Generator: Adobe Illustrator 16.0.0, SVG Export Plug-In . SVG Version: 6.00 Build 0)  -->
<!DOCTYPE svg PUBLIC "-//W3C//DTD SVG 1.1//EN" "http://www.w3.org/Graphics/SVG/1.1/DTD/svg11.dtd">
<svg version="1.1" id="Layer_1" xmlns="http://www.w3.org/2000/svg" xmlns:xlink="http://www.w3.org/1999/xlink" x="0px" y="0px"
	 width="50px" height="50px" viewBox="175 175 50 50" enable-background="new 175 175 50 50" xml:space="preserve">
<path fill="#2D2D2D" stroke="#2D2D2D" stroke-width="2" stroke-miterlimit="10" d="M195.44,200.346
	c-1.002,0-2.005-0.381-2.769-1.143c-1.523-1.526-1.521-4.006,0.001-5.53c0.32-0.319,0.836-0.319,1.155,0
	c0.32,0.319,0.32,0.836,0.001,1.155c-0.888,0.887-0.888,2.332-0.002,3.22c0.89,0.887,2.336,0.888,3.225,0
	c0.43-0.43,0.666-1.001,0.666-1.61c0-0.608-0.236-1.18-0.667-1.609c-0.319-0.32-0.319-0.836-0.001-1.155s0.836-0.32,1.156,0
	c0.738,0.738,1.145,1.72,1.146,2.765c0,1.045-0.408,2.027-1.146,2.766C197.443,199.965,196.443,200.346,195.44,200.346z"/>
<path fill="#2D2D2D" stroke="#2D2D2D" stroke-width="2" stroke-miterlimit="10" d="M208.449,222.523
	c-0.984,0.985-2.277,1.477-3.571,1.477c-1.293,0-2.586-0.491-3.571-1.477l-14.756-14.756c-1.188-1.188-2.06-3.434-1.984-5.113
	l0.583-10.95c0.187-2.875,2.679-5.366,5.553-5.554l1.723-0.112c-0.419-1.798-1.128-3.529-2.318-4.717
	c-0.498-0.499-1.008-0.926-1.524-1.288c-0.117-0.082-0.785-0.496-0.906-0.561c-0.053-0.027-0.491-0.248-0.659-0.318
	c-0.005-0.002-0.011-0.004-0.016-0.007c-2.501-1.043-5.048-0.477-7.19,1.667c-1.441,1.439-2.194,3.105-2.177,4.816
	c0.018,1.846,0.948,3.74,2.685,5.479c0.338,0.337,0.337,0.884,0,1.221c-0.168,0.168-0.389,0.253-0.61,0.253
	c-0.222,0-0.442-0.084-0.611-0.253c-2.064-2.065-3.167-4.376-3.191-6.682c-0.021-2.186,0.905-4.279,2.683-6.054
	c2.469-2.471,5.465-3.247,8.397-2.292c0.01,0.002,0.019,0.003,0.029,0.006c0.19,0.063,1.05,0.422,1.22,0.508
	c0.076,0.038,0.514,0.277,0.66,0.363c0.076,0.045,0.851,0.559,0.854,0.562c0.538,0.392,1.064,0.845,1.58,1.359
	c1.51,1.509,2.364,3.66,2.838,5.824l1.049-0.066l6.865-0.012c0.003,0,0.005,0,0.009,0c1.667,0,3.894,0.921,5.07,2.099l14.362,14.361
	c0.951,0.95,1.475,2.219,1.475,3.571s-0.523,2.62-1.475,3.571L208.449,222.523z M220.305,203.527l-14.363-14.362
	c-0.851-0.849-2.649-1.593-3.851-1.593c-0.002,0-0.004,0-0.005,0l-6.838,0.012l-0.776,0.051c0.452,3.299,0.163,6.23,0.14,6.448
	c-0.046,0.443-0.421,0.773-0.858,0.773c-0.031,0-0.06-0.001-0.091-0.005c-0.474-0.05-0.818-0.475-0.769-0.948
	c0.006-0.051,0.294-2.978-0.153-6.155l-1.924,0.125c-2.006,0.131-3.812,1.937-3.942,3.944l-0.582,10.914
	c-0.053,1.19,0.639,2.974,1.481,3.814l14.756,14.756c0.623,0.623,1.46,0.968,2.35,0.968c0.892,0,1.726-0.343,2.352-0.968
	l13.076-13.075c0.624-0.624,0.968-1.46,0.968-2.35C221.273,204.985,220.93,204.15,220.305,203.527z"/>
</svg>
