<?xml version="1.0" encoding="utf-8"?>
<!-- Generator: Adobe Illustrator 16.0.0, SVG Export Plug-In . SVG Version: 6.00 Build 0)  -->
<!DOCTYPE svg PUBLIC "-//W3C//DTD SVG 1.1//EN" "http://www.w3.org/Graphics/SVG/1.1/DTD/svg11.dtd">
<svg version="1.1" xmlns="http://www.w3.org/2000/svg" xmlns:xlink="http://www.w3.org/1999/xlink" x="0px" y="0px" width="32px"
	 height="32px" viewBox="0 0 32 32" enable-background="new 0 0 32 32" xml:space="preserve">
<g id="Layer_1">
	<g>
		<g>
			<line fill="#ACB5BC" x1="2.406" y1="29.986" x2="8.346" y2="24.96"/>
			<line fill="#ACB5BC" x1="7.83" y1="25.267" x2="15.459" y2="17.827"/>
			<line fill="#ACB5BC" x1="14.427" y1="17.861" x2="22.872" y2="25.233"/>
			<line fill="#ACB5BC" x1="21.839" y1="25.357" x2="30.178" y2="18.915"/>
			<line fill="#ACB5BC" x1="1.891" y1="22.648" x2="8.862" y2="14.055"/>
			<line fill="#ACB5BC" x1="7.83" y1="15.404" x2="15.459" y2="4.847"/>
			<line fill="#ACB5BC" x1="14.427" y1="5.231" x2="22.872" y2="10.629"/>
			<line fill="#ACB5BC" x1="21.839" y1="10.799" x2="29.662" y2="2.71"/>
			<path fill="#ACB5BC" d="M15.425,17.851"/>
			<path fill="#ACB5BC" d="M7.795,25.292"/>
			<path fill="#ACB5BC" d="M22.838,25.257"/>
			<path fill="#ACB5BC" d="M14.393,17.886"/>
			<circle fill="#ACB5BC" cx="8.312" cy="24.983" r="1.99"/>
			<circle fill="#ACB5BC" cx="2.372" cy="30.011" r="1.989"/>
			<circle fill="#ACB5BC" cx="14.908" cy="18.366" r="1.99"/>
			<circle fill="#ACB5BC" cx="22.321" cy="24.481" r="1.99"/>
			<circle fill="#ACB5BC" cx="29.628" cy="19.339" r="1.989"/>
			<circle fill="#ACB5BC" cx="8.199" cy="14.714" r="1.877"/>
			<circle fill="#ACB5BC" cx="2.372" cy="22.037" r="1.989"/>
			<circle fill="#ACB5BC" cx="14.908" cy="5.586" r="1.883"/>
			<circle fill="#ACB5BC" cx="22.321" cy="9.821" r="1.855"/>
			<circle fill="#ACB5BC" cx="29.628" cy="2.734" r="1.99"/>
			<path fill="#ACB5BC" d="M2.372,20.048c1.099,0,1.99,0.891,1.99,1.988c0,1.1-0.892,1.99-1.99,1.99"/>
			<path fill="#ACB5BC" d="M8.312,12.837c1.037,0,1.877,0.84,1.877,1.877c0,1.037-0.841,1.878-1.877,1.878"/>
			<path fill="#ACB5BC" d="M8.312,22.993c1.099,0,1.989,0.891,1.989,1.99c0,1.099-0.89,1.99-1.989,1.99"/>
			<path fill="#ACB5BC" d="M2.372,28.021c1.099,0,1.99,0.891,1.99,1.989c0,1.1-0.892,1.989-1.99,1.989"/>
			<path fill="#ACB5BC" d="M14.908,16.376c1.099,0,1.99,0.89,1.99,1.99s-0.892,1.99-1.99,1.99"/>
			<path fill="#ACB5BC" d="M22.321,22.491c1.099,0,1.99,0.891,1.99,1.987c0,1.101-0.891,1.992-1.99,1.992"/>
			<path fill="#ACB5BC" d="M22.321,7.966c1.025,0,1.855,0.831,1.855,1.855c0,1.024-0.831,1.855-1.855,1.855"/>
			<path fill="#ACB5BC" d="M29.628,17.35c1.099,0,1.989,0.89,1.989,1.989c0,1.098-0.89,1.989-1.989,1.989"/>
			<path fill="#ACB5BC" d="M29.628,0.744c1.099,0,1.989,0.892,1.989,1.99s-0.89,1.989-1.989,1.989"/>
			<path fill="#ACB5BC" d="M14.908,3.703c1.041,0,1.884,0.842,1.884,1.883c0,1.041-0.843,1.883-1.884,1.883"/>
		</g>
		<g>
			
				<line fill="none" stroke="#D1D2D4" stroke-width="2.625" stroke-miterlimit="10" x1="2.406" y1="29.242" x2="8.346" y2="24.215"/>
			
				<line fill="none" stroke="#D1D2D4" stroke-width="2.625" stroke-miterlimit="10" x1="7.83" y1="24.523" x2="15.459" y2="17.082"/>
			
				<line fill="none" stroke="#D1D2D4" stroke-width="2.625" stroke-miterlimit="10" x1="14.427" y1="17.117" x2="22.872" y2="24.489"/>
			
				<line fill="none" stroke="#D1D2D4" stroke-width="2.625" stroke-miterlimit="10" x1="21.839" y1="24.613" x2="30.178" y2="18.171"/>
			<line fill="none" stroke="#D1D2D4" stroke-width="2.625" stroke-miterlimit="10" x1="1.891" y1="21.904" x2="8.862" y2="13.31"/>
			<line fill="none" stroke="#D1D2D4" stroke-width="2.625" stroke-miterlimit="10" x1="7.83" y1="14.66" x2="15.459" y2="4.103"/>
			
				<line fill="none" stroke="#D1D2D4" stroke-width="2.625" stroke-miterlimit="10" x1="14.427" y1="4.487" x2="22.872" y2="9.885"/>
			
				<line fill="none" stroke="#D1D2D4" stroke-width="2.625" stroke-miterlimit="10" x1="21.839" y1="10.055" x2="29.662" y2="1.966"/>
			<path fill="none" stroke="#D1D2D4" stroke-width="1.6579" stroke-miterlimit="10" d="M15.425,17.107"/>
			<path fill="none" stroke="#D1D2D4" stroke-width="1.6579" stroke-miterlimit="10" d="M7.795,24.547"/>
			<path fill="none" stroke="#D1D2D4" stroke-width="1.6332" stroke-miterlimit="10" d="M22.838,24.513"/>
			<path fill="none" stroke="#D1D2D4" stroke-width="1.6332" stroke-miterlimit="10" d="M14.393,17.142"/>
			<circle fill="#D3555A" cx="8.312" cy="24.238" r="1.989"/>
			<circle fill="#36BBED" cx="2.372" cy="29.267" r="1.99"/>
			<circle fill="#FEC470" cx="14.908" cy="17.622" r="1.99"/>
			<circle fill="#A6D16F" cx="22.321" cy="23.737" r="1.989"/>
			<circle fill="#7DCCBB" cx="29.628" cy="18.595" r="1.989"/>
			<circle fill="#A6D16F" cx="8.199" cy="13.97" r="1.877"/>
			<circle fill="#7DCCBB" cx="2.372" cy="21.292" r="1.989"/>
			<circle fill="#36BBED" cx="14.908" cy="4.841" r="1.883"/>
			<circle fill="#D3555A" cx="22.321" cy="9.077" r="1.854"/>
			<circle fill="#FEC470" cx="29.628" cy="1.989" r="1.989"/>
			<path fill="#A2D8CB" d="M2.372,19.303c1.099,0,1.99,0.891,1.99,1.99s-0.892,1.989-1.99,1.989"/>
			<path fill="#C4DC7B" d="M8.312,12.093c1.037,0,1.877,0.84,1.877,1.876c0,1.037-0.841,1.878-1.877,1.878"/>
			<path fill="#F16465" d="M8.312,22.249c1.099,0,1.989,0.891,1.989,1.99c0,1.098-0.89,1.989-1.989,1.989"/>
			<path fill="#41C7F2" d="M2.372,27.277c1.099,0,1.99,0.891,1.99,1.99c0,1.1-0.892,1.99-1.99,1.99"/>
			<path fill="#FFD782" d="M14.908,15.632c1.099,0,1.99,0.891,1.99,1.989c0,1.099-0.892,1.99-1.99,1.99"/>
			<path fill="#C4DC7B" d="M22.321,21.748c1.099,0,1.99,0.889,1.99,1.987c0,1.101-0.891,1.992-1.99,1.992"/>
			<path fill="#F16465" d="M22.321,7.223c1.025,0,1.855,0.83,1.855,1.854c0,1.024-0.831,1.855-1.855,1.855"/>
			<path fill="#A2D8CB" d="M29.628,16.606c1.099,0,1.989,0.89,1.989,1.989c0,1.098-0.89,1.989-1.989,1.989"/>
			<path fill="#FFD782" d="M29.628,0c1.099,0,1.989,0.892,1.989,1.989c0,1.099-0.89,1.989-1.989,1.989"/>
			<path fill="#41C7F2" d="M14.908,2.958c1.041,0,1.884,0.843,1.884,1.884c0,1.04-0.843,1.883-1.884,1.883"/>
		</g>
	</g>
</g>
<g id="Layer_2">
</g>
</svg>
