<?xml version="1.0" encoding="utf-8"?>
<!-- Generator: Adobe Illustrator 16.0.0, SVG Export Plug-In . SVG Version: 6.00 Build 0)  -->
<!DOCTYPE svg PUBLIC "-//W3C//DTD SVG 1.1//EN" "http://www.w3.org/Graphics/SVG/1.1/DTD/svg11.dtd">
<svg version="1.1" xmlns="http://www.w3.org/2000/svg" xmlns:xlink="http://www.w3.org/1999/xlink" x="0px" y="0px" width="32px"
	 height="32px" viewBox="0 0 32 32" enable-background="new 0 0 32 32" xml:space="preserve">
<g id="Layer_1">
	<g>
		<g>
			<path fill="#ACB5BC" d="M17.079,15.272h14.509C31.057,7.49,24.85,1.274,17.079,0.744V15.272z"/>
			<path fill="#ACB5BC" d="M27.526,26.957c2.34-2.542,3.853-5.859,4.103-9.526H18.012L27.526,26.957z"/>
			<path fill="#ACB5BC" d="M14.923,15.903V0.744C6.795,1.298,0.372,8.072,0.372,16.351c0,3.933,1.453,7.523,3.845,10.273
				L14.923,15.903z"/>
			<path fill="#ACB5BC" d="M15.685,18.193l-9.944,9.956C8.486,30.546,12.073,32,16,32c3.768,0,7.22-1.338,9.917-3.562L15.685,18.193
				z"/>
		</g>
		<g>
			<path fill="#F16465" d="M17.079,14.528h14.509C31.057,6.746,24.85,0.53,17.079,0V14.528z"/>
			<path fill="#EFC41C" d="M27.526,26.212c2.34-2.542,3.853-5.858,4.103-9.525H18.012L27.526,26.212z"/>
			<path fill="#36BBED" d="M14.923,15.159V0C6.795,0.554,0.372,7.328,0.372,15.606c0,3.933,1.453,7.524,3.845,10.274L14.923,15.159z
				"/>
			<path fill="#A6D16F" d="M15.685,17.449l-9.944,9.957c2.745,2.396,6.332,3.85,10.259,3.85c3.768,0,7.22-1.338,9.917-3.561
				L15.685,17.449z"/>
		</g>
	</g>
</g>
<g id="Layer_2">
</g>
</svg>
