<?xml version="1.0" encoding="utf-8"?>
<!-- Generator: Adobe Illustrator 16.0.0, SVG Export Plug-In . SVG Version: 6.00 Build 0)  -->
<!DOCTYPE svg PUBLIC "-//W3C//DTD SVG 1.1//EN" "http://www.w3.org/Graphics/SVG/1.1/DTD/svg11.dtd">
<svg version="1.1" id="Layer_1" xmlns="http://www.w3.org/2000/svg" xmlns:xlink="http://www.w3.org/1999/xlink" x="0px" y="0px"
	 width="64.72px" height="70.016px" viewBox="0 0 64.72 70.016" enable-background="new 0 0 64.72 70.016" xml:space="preserve">
<rect fill="#CDDBE0" width="64.72" height="70.016"/>
<g>
	<path fill="#60BA46" d="M18.743,28.597c0.699-1.184,1.541-2.271,2.51-3.231l-8.232-9.026c-2.069,1.979-3.838,4.274-5.227,6.803
		L18.743,28.597z"/>
	<path fill="#E4B631" d="M38.923,22.218c1.246,0.571,2.406,1.301,3.454,2.164l8.254-9.015c-2.176-1.874-4.64-3.42-7.319-4.563
		L38.923,22.218z"/>
	<path fill="#C4222F" d="M57.83,24.934l-10.942,5.453c0.521,1.22,0.891,2.515,1.094,3.866l12.174-1.149
		C59.792,30.221,58.995,27.476,57.83,24.934"/>
	<path fill="#4A9E46" d="M46.101,28.806l10.939-5.453c-1.354-2.521-3.08-4.806-5.111-6.788l-8.256,9.013
		C44.615,26.542,45.43,27.627,46.101,28.806"/>
	<path fill="#428044" d="M16.567,36.58c0-0.246,0.006-0.49,0.019-0.736l-12.175-1.09c-0.037,0.606-0.06,1.211-0.06,1.826
		c0,2.335,0.291,4.605,0.827,6.771l11.758-3.37C16.696,38.883,16.567,37.747,16.567,36.58"/>
	<path fill="#F7C318" d="M44.569,46.586c-0.865,1.054-1.865,1.991-2.97,2.794l6.428,10.405c2.388-1.615,4.511-3.591,6.293-5.846
		L44.569,46.586z"/>
	<path fill="#EE412B" d="M48.153,36.58c0,1.153-0.126,2.278-0.361,3.361l11.752,3.376c0.539-2.158,0.824-4.415,0.824-6.737
		c0-0.578-0.02-1.149-0.054-1.719L48.143,36.01C48.149,36.203,48.153,36.389,48.153,36.58"/>
	<path fill="#F89F27" d="M20.349,46.821l-9.729,7.392c1.808,2.23,3.95,4.175,6.356,5.759l6.424-10.397
		C22.268,48.792,21.24,47.863,20.349,46.821"/>
	<path fill="#1B95D2" d="M16.766,34.088c0.218-1.376,0.617-2.689,1.165-3.922L6.993,24.718c-1.209,2.572-2.036,5.354-2.412,8.277
		L16.766,34.088z"/>
	<path fill="#A21C45" d="M46.532,60.727l-6.42-10.393c-1.162,0.66-2.42,1.176-3.744,1.521l2.266,12.025
		C41.451,63.231,44.108,62.156,46.532,60.727"/>
	<path fill="#29BCE1" d="M47.321,41.642c-0.426,1.252-1.002,2.432-1.707,3.519l9.759,7.363c1.585-2.279,2.841-4.801,3.695-7.506
		L47.321,41.642z"/>
	<path fill="#F16B2D" d="M34.638,52.208c-0.744,0.108-1.502,0.166-2.279,0.166c-0.617,0-1.232-0.038-1.838-0.11L28.26,64.29
		c1.338,0.193,2.706,0.299,4.099,0.299c1.548,0,3.064-0.127,4.545-0.369L34.638,52.208z"/>
	<path fill="#E8253D" d="M33.368,20.821c1.357,0.085,2.669,0.345,3.911,0.753l4.388-11.411c-2.609-0.922-5.396-1.469-8.299-1.571
		V20.821z"/>
	<path fill="#DC1768" d="M28.782,51.963c-1.369-0.316-2.669-0.816-3.877-1.466l-6.432,10.4c2.475,1.417,5.181,2.465,8.048,3.077
		L28.782,51.963z"/>
	<path fill="#19496B" d="M27.615,21.519c1.27-0.4,2.604-0.646,3.988-0.711V8.583c-2.94,0.078-5.761,0.614-8.411,1.532L27.615,21.519
		z"/>
	<path fill="#C5962D" d="M19.278,45.416c-0.779-1.147-1.412-2.402-1.865-3.736L5.667,45.051c0.889,2.802,2.207,5.414,3.877,7.759
		L19.278,45.416z"/>
	<path fill="#056A9D" d="M22.575,24.193c1.033-0.818,2.169-1.507,3.385-2.049l-4.416-11.397c-2.632,1.105-5.058,2.6-7.207,4.413
		L22.575,24.193z"/>
</g>
</svg>
