<?xml version="1.0" encoding="utf-8"?>
<!-- Generator: Adobe Illustrator 16.0.0, SVG Export Plug-In . SVG Version: 6.00 Build 0)  -->
<!DOCTYPE svg PUBLIC "-//W3C//DTD SVG 1.1//EN" "http://www.w3.org/Graphics/SVG/1.1/DTD/svg11.dtd">
<svg version="1.1" id="Layer_1" xmlns="http://www.w3.org/2000/svg" xmlns:xlink="http://www.w3.org/1999/xlink" x="0px" y="0px"
	 width="64.72px" height="70.016px" viewBox="0 0 64.72 70.016" enable-background="new 0 0 64.72 70.016" xml:space="preserve">
<rect fill="#164A6C" width="64.72" height="70.016"/>
<path fill-rule="evenodd" clip-rule="evenodd" fill="#FFFFFF" d="M52.234,34.676c-0.598-4.511-3.745-8.008-8.217-9.012
	c-0.6-0.139-0.823-0.389-1.019-0.931c-1.492-4.124-4.437-6.594-8.785-7.064c-4.355-0.469-7.76,1.322-10.098,5.023
	c-0.373,0.583-0.688,0.847-1.443,0.897c-4.349,0.281-7.596,2.346-9.296,6.4c-1.673,3.985-1.002,7.729,1.822,11.022
	c0.438,0.509,0.438,0.923,0.285,1.508c-1.144,4.186-0.167,7.861,3.054,10.744c3.26,2.927,7.071,3.462,11.127,1.803
	c0.703-0.29,1.111-0.155,1.703,0.217c3.62,2.267,7.379,2.441,11.07,0.28c3.719-2.174,5.324-5.59,5.127-9.835
	c-0.034-0.745,0.127-1.147,0.682-1.583c2.317-1.792,3.645-4.17,3.997-7.274C52.25,36.262,52.341,35.472,52.234,34.676z
	 M41.425,28.272c-0.041,1.127-0.314,2.204-0.778,3.229c-1.265,2.795-4.022,4.667-7.077,4.768c-0.297-3.905,2.543-7.646,6.51-8.471
	c0.234-0.041,0.475-0.076,0.706-0.119C41.268,27.587,41.438,27.829,41.425,28.272z M39.478,38.596
	c2.328,0.712,4.019,2.172,5.119,4.327c0.317,0.625,0.27,0.748-0.364,0.934c-4.276,1.261-8.767-1.067-10.095-5.04
	C35.901,38.172,37.661,38.038,39.478,38.596z M33.221,19.742c3.681,0.18,6.754,2.432,7.65,5.681c-3.81,0.716-5.21,1.571-8.037,4.926
	c-0.695-1.52-1.538-2.889-2.744-4.001c-1.182-1.098-2.584-1.808-4.068-2.377C26.978,21.545,30.317,19.603,33.221,19.742z
	 M25.152,26.255c0.671-0.408,1.467,0.306,2.128,0.704c3.609,2.16,4.64,6.413,3.684,9.063c-3.608-0.97-6.052-4.035-6.159-7.644
	C24.782,27.628,24.53,26.621,25.152,26.255z M29.861,38.496c-2.192,4.142-8.24,4.895-11.248,2.491
	C20.811,37.14,26.405,36.012,29.861,38.496z M15.254,30.975c1.226-3.059,4.421-5.276,7.535-5.127
	c-0.573,3.345,0.187,6.372,2.328,9.053c-4.484,0.918-5.495,1.477-8.261,4.538C14.899,37.813,14.039,34.003,15.254,30.975z
	 M23.876,53.641c-4.492-0.883-7.448-5.347-6.521-9.831c0.141-0.685,0.215-0.741,0.844-0.436c2.706,1.313,5.473,1.516,8.322,0.543
	c0.103-0.039,0.229-0.008,0.406-0.008c-0.158,1.582-0.404,3.143-0.059,4.726c0.346,1.583,1.038,2.982,1.984,4.399
	C27.214,53.804,25.574,53.971,23.876,53.641z M30.317,51.284c-2.333-3.117-1.838-8.097,1.047-10.706
	c0.402-0.368,0.643-0.308,0.925,0.113c1.147,1.718,1.699,3.581,1.46,5.577c-0.178,2.02-0.992,3.673-2.346,5.042
	C30.822,51.899,30.773,51.887,30.317,51.284z M41.443,53.641c-2.945,1.785-5.962,1.666-9.023-0.238
	c2.469-2.354,3.683-5.202,3.534-8.757c3.047,1.805,6.148,2.195,9.478,1.139C45.575,49.26,44.294,51.913,41.443,53.641z
	 M46.82,42.472c-1.446-3.068-3.764-5.159-7.259-6.118c1.279-1.175,2.338-2.381,3.027-3.867c0.678-1.461,0.93-3.009,1.049-4.697
	c3.32,0.911,5.393,2.94,6.25,6.154C50.673,36.912,49.593,40.493,46.82,42.472z"/>
</svg>
